<svg width="1367" height="474" viewBox="0 0 1367 474" fill="none" xmlns="http://www.w3.org/2000/svg">
<path d="M495.493 172.737C493.149 174.556 451.766 197.869 451.766 249.707C451.766 309.667 504.424 330.879 506 331.404C505.758 332.697 497.635 360.455 478.236 388.737C460.94 413.626 442.875 438.475 415.395 438.475C387.914 438.475 380.842 422.515 349.118 422.515C318.202 422.515 307.21 439 282.073 439C256.936 439 239.397 415.97 219.231 387.687C195.873 354.475 177 302.879 177 253.909C177 175.364 228.082 133.707 278.355 133.707C305.068 133.707 327.335 151.242 344.107 151.242C360.07 151.242 384.964 132.657 415.354 132.657C426.872 132.657 468.255 133.707 495.493 172.737ZM400.927 99.404C413.495 84.4949 422.386 63.8081 422.386 43.1212C422.386 40.2525 422.144 37.3434 421.618 35C401.169 35.7677 376.841 48.6162 362.171 65.6263C350.653 78.7172 339.904 99.404 339.904 120.374C339.904 123.525 340.429 126.677 340.672 127.687C341.965 127.929 344.066 128.212 346.168 128.212C364.515 128.212 387.591 115.929 400.927 99.404Z" fill="white"/>
<path d="M552.091 147.909H576.364L602 210.455H603.091L628.727 147.909H653V241H633.909V180.409H633.136L609.045 240.545H596.045L571.955 180.182H571.182V241H552.091V147.909ZM688.761 242.318C684.307 242.318 680.337 241.545 676.852 240C673.367 238.424 670.61 236.106 668.58 233.045C666.58 229.955 665.58 226.106 665.58 221.5C665.58 217.621 666.292 214.364 667.716 211.727C669.14 209.091 671.08 206.97 673.534 205.364C675.989 203.758 678.777 202.545 681.898 201.727C685.049 200.909 688.352 200.333 691.807 200C695.867 199.576 699.14 199.182 701.625 198.818C704.11 198.424 705.913 197.848 707.034 197.091C708.155 196.333 708.716 195.212 708.716 193.727V193.455C708.716 190.576 707.807 188.348 705.989 186.773C704.201 185.197 701.655 184.409 698.352 184.409C694.867 184.409 692.095 185.182 690.034 186.727C687.973 188.242 686.61 190.152 685.943 192.455L668.034 191C668.943 186.758 670.731 183.091 673.398 180C676.064 176.879 679.504 174.485 683.716 172.818C687.958 171.121 692.867 170.273 698.443 170.273C702.322 170.273 706.034 170.727 709.58 171.636C713.155 172.545 716.322 173.955 719.08 175.864C721.867 177.773 724.064 180.227 725.67 183.227C727.277 186.197 728.08 189.758 728.08 193.909V241H709.716V231.318H709.17C708.049 233.5 706.549 235.424 704.67 237.091C702.792 238.727 700.534 240.015 697.898 240.955C695.261 241.864 692.216 242.318 688.761 242.318ZM694.307 228.955C697.155 228.955 699.67 228.394 701.852 227.273C704.034 226.121 705.746 224.576 706.989 222.636C708.231 220.697 708.852 218.5 708.852 216.045V208.636C708.246 209.03 707.413 209.394 706.352 209.727C705.322 210.03 704.155 210.318 702.852 210.591C701.549 210.833 700.246 211.061 698.943 211.273C697.64 211.455 696.458 211.621 695.398 211.773C693.125 212.106 691.14 212.636 689.443 213.364C687.746 214.091 686.428 215.076 685.489 216.318C684.549 217.53 684.08 219.045 684.08 220.864C684.08 223.5 685.034 225.515 686.943 226.909C688.883 228.273 691.337 228.955 694.307 228.955ZM774.648 242.364C767.496 242.364 761.345 240.848 756.193 237.818C751.072 234.758 747.133 230.515 744.375 225.091C741.648 219.667 740.284 213.424 740.284 206.364C740.284 199.212 741.663 192.939 744.42 187.545C747.208 182.121 751.163 177.894 756.284 174.864C761.405 171.803 767.496 170.273 774.557 170.273C780.648 170.273 785.981 171.379 790.557 173.591C795.133 175.803 798.754 178.909 801.42 182.909C804.087 186.909 805.557 191.606 805.83 197H787.557C787.042 193.515 785.678 190.712 783.466 188.591C781.284 186.439 778.42 185.364 774.875 185.364C771.875 185.364 769.254 186.182 767.011 187.818C764.799 189.424 763.072 191.773 761.83 194.864C760.587 197.955 759.966 201.697 759.966 206.091C759.966 210.545 760.572 214.333 761.784 217.455C763.027 220.576 764.769 222.955 767.011 224.591C769.254 226.227 771.875 227.045 774.875 227.045C777.087 227.045 779.072 226.591 780.83 225.682C782.617 224.773 784.087 223.455 785.239 221.727C786.42 219.97 787.193 217.864 787.557 215.409H805.83C805.527 220.742 804.072 225.439 801.466 229.5C798.89 233.53 795.33 236.682 790.784 238.955C786.239 241.227 780.86 242.364 774.648 242.364ZM904.136 194.455C904.136 204.606 902.212 213.242 898.364 220.364C894.545 227.485 889.333 232.924 882.727 236.682C876.152 240.409 868.758 242.273 860.545 242.273C852.273 242.273 844.848 240.394 838.273 236.636C831.697 232.879 826.5 227.439 822.682 220.318C818.864 213.197 816.955 204.576 816.955 194.455C816.955 184.303 818.864 175.667 822.682 168.545C826.5 161.424 831.697 156 838.273 152.273C844.848 148.515 852.273 146.636 860.545 146.636C868.758 146.636 876.152 148.515 882.727 152.273C889.333 156 894.545 161.424 898.364 168.545C902.212 175.667 904.136 184.303 904.136 194.455ZM884.182 194.455C884.182 187.879 883.197 182.333 881.227 177.818C879.288 173.303 876.545 169.879 873 167.545C869.455 165.212 865.303 164.045 860.545 164.045C855.788 164.045 851.636 165.212 848.091 167.545C844.545 169.879 841.788 173.303 839.818 177.818C837.879 182.333 836.909 187.879 836.909 194.455C836.909 201.03 837.879 206.576 839.818 211.091C841.788 215.606 844.545 219.03 848.091 221.364C851.636 223.697 855.788 224.864 860.545 224.864C865.303 224.864 869.455 223.697 873 221.364C876.545 219.03 879.288 215.606 881.227 211.091C883.197 206.576 884.182 201.03 884.182 194.455ZM969.216 174.682C968.852 171.015 967.292 168.167 964.534 166.136C961.777 164.106 958.034 163.091 953.307 163.091C950.095 163.091 947.383 163.545 945.17 164.455C942.958 165.333 941.261 166.561 940.08 168.136C938.928 169.712 938.352 171.5 938.352 173.5C938.292 175.167 938.64 176.621 939.398 177.864C940.186 179.106 941.261 180.182 942.625 181.091C943.989 181.97 945.564 182.742 947.352 183.409C949.14 184.045 951.049 184.591 953.08 185.045L961.443 187.045C965.504 187.955 969.231 189.167 972.625 190.682C976.019 192.197 978.958 194.061 981.443 196.273C983.928 198.485 985.852 201.091 987.216 204.091C988.61 207.091 989.322 210.53 989.352 214.409C989.322 220.106 987.867 225.045 984.989 229.227C982.14 233.379 978.019 236.606 972.625 238.909C967.261 241.182 960.792 242.318 953.216 242.318C945.701 242.318 939.155 241.167 933.58 238.864C928.034 236.561 923.701 233.152 920.58 228.636C917.489 224.091 915.867 218.47 915.716 211.773H934.761C934.973 214.894 935.867 217.5 937.443 219.591C939.049 221.652 941.186 223.212 943.852 224.273C946.549 225.303 949.595 225.818 952.989 225.818C956.322 225.818 959.216 225.333 961.67 224.364C964.155 223.394 966.08 222.045 967.443 220.318C968.807 218.591 969.489 216.606 969.489 214.364C969.489 212.273 968.867 210.515 967.625 209.091C966.413 207.667 964.625 206.455 962.261 205.455C959.928 204.455 957.064 203.545 953.67 202.727L943.534 200.182C935.686 198.273 929.489 195.288 924.943 191.227C920.398 187.167 918.14 181.697 918.17 174.818C918.14 169.182 919.64 164.258 922.67 160.045C925.731 155.833 929.928 152.545 935.261 150.182C940.595 147.818 946.655 146.636 953.443 146.636C960.352 146.636 966.383 147.818 971.534 150.182C976.716 152.545 980.746 155.833 983.625 160.045C986.504 164.258 987.989 169.136 988.08 174.682H969.216ZM1031.67 241V226.818L1064.81 196.136C1067.63 193.409 1069.99 190.955 1071.9 188.773C1073.84 186.591 1075.31 184.455 1076.31 182.364C1077.31 180.242 1077.81 177.955 1077.81 175.5C1077.81 172.773 1077.19 170.424 1075.94 168.455C1074.7 166.455 1073 164.924 1070.85 163.864C1068.7 162.773 1066.26 162.227 1063.53 162.227C1060.69 162.227 1058.2 162.803 1056.08 163.955C1053.96 165.106 1052.32 166.758 1051.17 168.909C1050.02 171.061 1049.44 173.621 1049.44 176.591H1030.76C1030.76 170.5 1032.14 165.212 1034.9 160.727C1037.66 156.242 1041.52 152.773 1046.49 150.318C1051.46 147.864 1057.19 146.636 1063.67 146.636C1070.34 146.636 1076.14 147.818 1081.08 150.182C1086.05 152.515 1089.91 155.758 1092.67 159.909C1095.43 164.061 1096.81 168.818 1096.81 174.182C1096.81 177.697 1096.11 181.167 1094.72 184.591C1093.35 188.015 1090.91 191.818 1087.4 196C1083.88 200.152 1078.93 205.136 1072.53 210.955L1058.94 224.273V224.909H1098.03V241H1031.67ZM1148.02 242.273C1143.23 242.242 1138.61 241.439 1134.16 239.864C1129.73 238.288 1125.77 235.727 1122.25 232.182C1118.73 228.636 1115.95 223.939 1113.89 218.091C1111.86 212.242 1110.84 205.061 1110.84 196.545C1110.87 188.727 1111.77 181.742 1113.52 175.591C1115.31 169.409 1117.86 164.167 1121.16 159.864C1124.49 155.561 1128.48 152.288 1133.11 150.045C1137.75 147.773 1142.95 146.636 1148.7 146.636C1154.92 146.636 1160.4 147.848 1165.16 150.273C1169.92 152.667 1173.73 155.924 1176.61 160.045C1179.52 164.167 1181.28 168.788 1181.89 173.909H1162.48C1161.72 170.667 1160.13 168.121 1157.7 166.273C1155.28 164.424 1152.28 163.5 1148.7 163.5C1142.64 163.5 1138.04 166.136 1134.89 171.409C1131.77 176.682 1130.17 183.848 1130.11 192.909H1130.75C1132.14 190.152 1134.02 187.803 1136.39 185.864C1138.78 183.894 1141.49 182.394 1144.52 181.364C1147.58 180.303 1150.81 179.773 1154.2 179.773C1159.72 179.773 1164.63 181.076 1168.93 183.682C1173.23 186.258 1176.63 189.803 1179.11 194.318C1181.6 198.833 1182.84 204 1182.84 209.818C1182.84 216.121 1181.37 221.727 1178.43 226.636C1175.52 231.545 1171.45 235.394 1166.2 238.182C1160.99 240.939 1154.93 242.303 1148.02 242.273ZM1147.93 226.818C1150.96 226.818 1153.67 226.091 1156.07 224.636C1158.46 223.182 1160.34 221.212 1161.7 218.727C1163.07 216.242 1163.75 213.455 1163.75 210.364C1163.75 207.273 1163.07 204.5 1161.7 202.045C1160.37 199.591 1158.52 197.636 1156.16 196.182C1153.8 194.727 1151.1 194 1148.07 194C1145.8 194 1143.69 194.424 1141.75 195.273C1139.84 196.121 1138.16 197.303 1136.7 198.818C1135.28 200.333 1134.16 202.091 1133.34 204.091C1132.52 206.061 1132.11 208.167 1132.11 210.409C1132.11 213.409 1132.8 216.152 1134.16 218.636C1135.55 221.121 1137.43 223.106 1139.8 224.591C1142.19 226.076 1144.9 226.818 1147.93 226.818Z" fill="white"/>
<path d="M547.409 276.352V264.182H604.75V276.352H583.375V334H568.784V276.352H547.409ZM621.727 334.989C618.386 334.989 615.409 334.409 612.795 333.25C610.182 332.068 608.114 330.33 606.591 328.034C605.091 325.716 604.341 322.83 604.341 319.375C604.341 316.466 604.875 314.023 605.943 312.045C607.011 310.068 608.466 308.477 610.307 307.273C612.148 306.068 614.239 305.159 616.58 304.545C618.943 303.932 621.42 303.5 624.011 303.25C627.057 302.932 629.511 302.636 631.375 302.364C633.239 302.068 634.591 301.636 635.432 301.068C636.273 300.5 636.693 299.659 636.693 298.545V298.341C636.693 296.182 636.011 294.511 634.648 293.33C633.307 292.148 631.398 291.557 628.92 291.557C626.307 291.557 624.227 292.136 622.682 293.295C621.136 294.432 620.114 295.864 619.614 297.591L606.182 296.5C606.864 293.318 608.205 290.568 610.205 288.25C612.205 285.909 614.784 284.114 617.943 282.864C621.125 281.591 624.807 280.955 628.989 280.955C631.898 280.955 634.682 281.295 637.341 281.977C640.023 282.659 642.398 283.716 644.466 285.148C646.557 286.58 648.205 288.42 649.409 290.67C650.614 292.898 651.216 295.568 651.216 298.682V334H637.443V326.739H637.034C636.193 328.375 635.068 329.818 633.659 331.068C632.25 332.295 630.557 333.261 628.58 333.966C626.602 334.648 624.318 334.989 621.727 334.989ZM625.886 324.966C628.023 324.966 629.909 324.545 631.545 323.705C633.182 322.841 634.466 321.682 635.398 320.227C636.33 318.773 636.795 317.125 636.795 315.284V309.727C636.341 310.023 635.716 310.295 634.92 310.545C634.148 310.773 633.273 310.989 632.295 311.193C631.318 311.375 630.341 311.545 629.364 311.705C628.386 311.841 627.5 311.966 626.705 312.08C625 312.33 623.511 312.727 622.239 313.273C620.966 313.818 619.977 314.557 619.273 315.489C618.568 316.398 618.216 317.534 618.216 318.898C618.216 320.875 618.932 322.386 620.364 323.432C621.818 324.455 623.659 324.966 625.886 324.966ZM677.006 303.727V334H662.483V264.182H676.597V290.875H677.21C678.392 287.784 680.301 285.364 682.938 283.614C685.574 281.841 688.881 280.955 692.858 280.955C696.494 280.955 699.665 281.75 702.369 283.341C705.097 284.909 707.21 287.17 708.71 290.125C710.233 293.057 710.983 296.568 710.96 300.659V334H696.438V303.25C696.46 300.023 695.642 297.511 693.983 295.716C692.347 293.92 690.051 293.023 687.097 293.023C685.119 293.023 683.369 293.443 681.847 294.284C680.347 295.125 679.165 296.352 678.301 297.966C677.46 299.557 677.028 301.477 677.006 303.727ZM746.048 335.023C740.753 335.023 736.173 333.898 732.31 331.648C728.469 329.375 725.503 326.216 723.412 322.17C721.321 318.102 720.276 313.386 720.276 308.023C720.276 302.614 721.321 297.886 723.412 293.841C725.503 289.773 728.469 286.614 732.31 284.364C736.173 282.091 740.753 280.955 746.048 280.955C751.344 280.955 755.912 282.091 759.753 284.364C763.616 286.614 766.594 289.773 768.685 293.841C770.776 297.886 771.821 302.614 771.821 308.023C771.821 313.386 770.776 318.102 768.685 322.17C766.594 326.216 763.616 329.375 759.753 331.648C755.912 333.898 751.344 335.023 746.048 335.023ZM746.116 323.773C748.526 323.773 750.537 323.091 752.151 321.727C753.764 320.341 754.98 318.455 755.798 316.068C756.639 313.682 757.06 310.966 757.06 307.92C757.06 304.875 756.639 302.159 755.798 299.773C754.98 297.386 753.764 295.5 752.151 294.114C750.537 292.727 748.526 292.034 746.116 292.034C743.685 292.034 741.639 292.727 739.98 294.114C738.344 295.5 737.105 297.386 736.264 299.773C735.446 302.159 735.037 304.875 735.037 307.92C735.037 310.966 735.446 313.682 736.264 316.068C737.105 318.455 738.344 320.341 739.98 321.727C741.639 323.091 743.685 323.773 746.116 323.773ZM805.128 335.023C799.741 335.023 795.105 333.932 791.219 331.75C787.355 329.545 784.378 326.432 782.287 322.409C780.196 318.364 779.151 313.58 779.151 308.057C779.151 302.67 780.196 297.943 782.287 293.875C784.378 289.807 787.321 286.636 791.116 284.364C794.935 282.091 799.412 280.955 804.548 280.955C808.003 280.955 811.219 281.511 814.196 282.625C817.196 283.716 819.81 285.364 822.037 287.568C824.287 289.773 826.037 292.545 827.287 295.886C828.537 299.205 829.162 303.091 829.162 307.545V311.534H784.946V302.534H815.491C815.491 300.443 815.037 298.591 814.128 296.977C813.219 295.364 811.957 294.102 810.344 293.193C808.753 292.261 806.901 291.795 804.787 291.795C802.582 291.795 800.628 292.307 798.923 293.33C797.241 294.33 795.923 295.682 794.969 297.386C794.014 299.068 793.526 300.943 793.503 303.011V311.568C793.503 314.159 793.98 316.398 794.935 318.284C795.912 320.17 797.287 321.625 799.06 322.648C800.832 323.67 802.935 324.182 805.366 324.182C806.98 324.182 808.457 323.955 809.798 323.5C811.139 323.045 812.287 322.364 813.241 321.455C814.196 320.545 814.923 319.432 815.423 318.114L828.855 319C828.173 322.227 826.776 325.045 824.662 327.455C822.571 329.841 819.866 331.705 816.548 333.045C813.253 334.364 809.446 335.023 805.128 335.023Z" fill="white"/>
</svg>
